Coordinates
version=1
nRows=13
nColumns=36
inDegrees=yes

Units are S.I. units (second, meters, Newtons, ...)
If the header above contains a line with 'inDegrees', this indicates whether rotational values are in degrees (yes) or radians (no).

endheader
time	pelvis_tilt	pelvis_list	pelvis_rotation	pelvis_tx	pelvis_ty	pelvis_tz	hip_flexion_r	hip_adduction_r	hip_rotation_r	knee_angle_r	knee_angle_r_beta	ankle_angle_r	subtalar_angle_r	mtp_angle_r	hip_flexion_l	hip_adduction_l	hip_rotation_l	knee_angle_l	knee_angle_l_beta	ankle_angle_l	subtalar_angle_l	mtp_angle_l	lumbar_extension	lumbar_bending	lumbar_rotation	arm_flex_r	arm_add_r	arm_rot_r	elbow_flex_r	pro_sup_r	arm_flex_l	arm_add_l	arm_rot_l	elbow_flex_l	pro_sup_l
      0.00000000	     -8.38057824	      3.02400253	     -6.96981016	     -0.48407783	      0.95930385	      0.05421415	     15.02774777	     -3.11260897	     -9.23795271	     19.65340865	      0.34301669	     -6.62143259	    -27.55970586	     -5.30587218	     27.14782580	     -5.65698500	     -5.65767730	     15.92550723	      0.27795254	      2.90208050	     -2.94133591	     -5.30587218	    -24.11754651	      5.92387645	      6.96226791	      9.60822128	    -19.20105911	     11.71392805	     47.51326860	     79.76728986	      6.49555907	     -7.58677962	     19.80898926	     42.22997416	     70.87201685
      0.01694910	     -8.56960206	      4.37594650	     -6.51590162	     -0.48845485	      0.96339420	      0.04685941	     16.35881021	     -5.00396837	     -8.99493496	     20.39169419	      0.35590220	     -1.17106578	    -27.63106554	     -5.40626386	     28.03108371	     -4.71179213	     -6.30195177	     16.25321974	      0.28367220	      4.50163781	     -1.23736591	     -5.40626386	    -23.66295182	      4.82272264	      6.30459142	     11.00726037	    -17.46127660	      9.85866572	     44.69729855	     79.04360814	      8.01875566	     -7.04024036	     19.82168493	     40.73314011	     71.43066740
      0.03389830	     -9.09665219	      4.07647130	     -6.41190844	     -0.48899052	      0.96531909	      0.04028213	     16.67992603	     -4.97393406	    -10.00640081	     19.99903297	      0.34904897	     -0.28808595	    -29.14604484	     -5.96857890	     28.35859907	     -5.63643727	     -5.99849185	     14.87955933	      0.25969730	      3.84651495	     -1.68985997	     -5.96857890	    -23.92889243	      4.89340354	      6.96836501	     11.22838556	    -16.89682369	      7.87442505	     44.85449386	     80.11950894	      9.52330052	     -6.65122463	     19.62852696	     40.06590460	     77.22420384
      0.05084750	     -8.65829274	      3.48721194	     -6.21857689	     -0.48783362	      0.96679420	      0.03398730	     15.90093195	     -4.79970935	    -10.77539090	     19.72100210	      0.34419642	      0.09413674	    -29.35784564	     -6.01127171	     27.85104968	     -6.61139831	     -5.72437921	     13.79463774	      0.24076185	      3.95069437	     -1.43132957	     -6.01127171	    -25.19114469	      5.27810435	      7.11933229	     12.03333941	    -16.83167032	      8.03867858	     44.68543088	     80.18702461	     10.51537217	     -6.55803295	     19.87238240	     39.82277783	     77.67615589
      0.06779660	     -8.57231911	      2.89939011	     -5.92118106	     -0.48551107	      0.96747093	      0.02781916	     15.55674143	     -4.48563787	    -11.29647637	     19.38906625	      0.33840304	      0.07287274	    -29.62822382	     -6.04254141	     27.66143342	     -7.46805895	     -5.75379124	     12.83930155	      0.22408809	      3.92163434	     -1.01580836	     -6.04254141	    -26.13276676	      5.77039133	      7.38281294	     12.54047539	    -16.83713732	      8.49968135	     44.88559547	     80.38382799	     11.30355832	     -6.26276912	     20.39804388	     39.64860045	     78.28478656
      0.08474580	     -8.41778430	      2.45502618	     -5.59926891	     -0.48388427	      0.96730108	      0.02175908	     15.13553885	     -4.35159623	    -11.51538101	     19.29429812	      0.33674903	     -0.09771970	    -29.93297026	     -6.18039326	     27.55905851	     -8.07670617	     -5.91480621	     12.28791037	      0.21446449	      4.12502293	     -0.55968525	     -6.18039326	    -26.96203734	      6.03916976	      7.65313958	     13.16940464	    -17.02570246	      9.80205189	     44.89104763	     81.21408598	     12.28452770	     -6.15811181	     21.73918314	     39.26413731	     81.05563145
      0.10169490	     -8.62139565	      2.12278180	     -5.18970873	     -0.48292326	      0.96552965	      0.01555493	     15.25125511	     -4.32779482	    -11.58743835	     19.40823017	      0.33873752	      0.00483483	    -30.11816661	     -6.18351155	     27.97833910	     -8.47761292	     -6.04005338	     11.92406881	      0.20811426	      4.21380567	     -0.57760624	     -6.18351155	    -27.52326532	      6.19409414	      7.79509394	     13.63444625	    -16.76446373	      9.90913680	     45.00280516	     81.24336312	     12.92812110	     -5.90104967	     21.76520623	     39.42800175	     81.11918527
      0.11864410	     -8.50591568	      1.72505498	     -4.71070843	     -0.48219685	      0.96294180	      0.00889437	     15.04280163	     -4.27017769	    -11.38610671	     19.64444221	      0.34286020	     -0.42692038	    -31.20925887	     -6.24687085	     28.16566272	     -8.76984338	     -6.22517431	     11.76460861	      0.20533116	      4.35200546	     -0.02104411	     -6.24687085	    -28.48905311	      6.40108411	      7.81245841	     14.64168292	    -16.99644964	     11.79971866	     44.89828333	     81.90379308	     13.95712784	     -5.95293842	     23.14021089	     39.36551488	     82.64847448
      0.13559320	     -8.72043307	      1.39638895	     -4.24118247	     -0.48043571	      0.95969637	      0.00154660	     15.27270925	     -4.36288880	    -11.25564155	     20.10963476	      0.35097934	     -0.17215687	    -31.50973014	     -6.25403072	     28.70287149	     -8.86041550	     -6.23457932	     11.72199157	      0.20458735	      4.30599039	      0.09543731	     -6.25403072	    -29.11175338	      6.52941288	      7.83400112	     15.26377958	    -16.77424623	     11.94676559	     44.97102667	     81.96559587	     14.71801551	     -5.73083088	     23.25138331	     39.53234189	     82.81460136
      0.15254240	     -9.13283544	      1.18371408	     -3.92838258	     -0.47795210	      0.95754830	     -0.00590921	     15.84647060	     -4.60625873	    -10.91509196	     20.78440176	      0.36275624	      0.07814959	    -31.90806496	     -6.30328251	     29.36651569	     -8.82428599	     -6.63748229	     11.86446328	      0.20707395	      4.21663306	      0.58770020	     -6.30328251	    -29.37971934	      6.47581967	      7.73706740	     16.25602844	    -16.65016519	     13.35063260	     44.41321636	     82.50913888	     15.53245532	     -5.82183164	     24.55657510	     39.59991824	     84.08347054
      0.16949150	     -9.28277613	      0.88291086	     -3.53354028	     -0.47518822	      0.95794252	     -0.01365559	     15.91444802	     -4.85397010	    -10.81769488	     21.13316285	      0.36884327	      0.12536715	    -32.02524737	     -6.31031853	     29.69411180	     -8.69326691	     -6.88345238	     12.19186226	      0.21278814	      3.68726965	      0.64355697	     -6.31031853	    -30.06301441	      6.50742561	      7.75129096	     16.92902808	    -16.44111983	     13.46083284	     44.39362184	     82.57529504	     16.34050531	     -5.50584276	     24.66190625	     39.73914803	     84.24535336
      0.18644070	     -9.29482274	      0.67932623	     -3.24493909	     -0.47262248	      0.95963510	     -0.02139722	     15.82457086	     -5.22156876	    -10.65578500	     21.38823395	      0.37329510	     -0.08572898	    -32.17959620	     -6.36111556	     29.75382999	     -8.44821232	     -7.41929848	     12.58787794	      0.21969992	      2.70878050	      0.30714745	     -6.36111556	    -30.79581728	      6.38427640	      7.63860836	     18.17990335	    -16.24384907	     14.62739252	     43.28249251	     83.16911727	     17.41879122	     -5.45820974	     26.09123442	     39.53946621	     85.53862144
      0.20338980	     -9.40221015	      0.40391797	     -2.92830202	     -0.47022490	      0.95938310	     -0.02990008	     15.87884071	     -5.56976054	    -10.66246196	     21.68435245	      0.37846335	     -0.41847095	    -32.13873752	     -6.36730997	     30.09144348	     -8.26482556	     -8.22097095	     13.40927640	      0.23403602	      1.68942062	     -0.01240659	     -6.36730997	    -31.57143973	      6.35213598	      7.64598433	     18.92483261	    -16.09894764	     14.69029844	     43.26555762	     83.23046667	     18.30914519	     -5.08536133	     26.22134329	     39.73133026	     85.68008734
